<?xml version="1.0" standalone="no"?>
<!DOCTYPE svg PUBLIC "-//W3C//DTD SVG 20010904//EN"
 "http://www.w3.org/TR/2001/REC-SVG-20010904/DTD/svg10.dtd">
<svg version="1.0" xmlns="http://www.w3.org/2000/svg"
 width="512.000000pt" height="512.000000pt" viewBox="0 0 512.000000 512.000000"
 preserveAspectRatio="xMidYMid meet">

<g transform="translate(0.000000,512.000000) scale(0.100000,-0.100000)"
fill="#000000" stroke="none">
<path d="M3760 4830 l0 -289 40 -103 40 -103 0 -678 0 -678 -32 -11 c-66 -23
-197 -96 -258 -143 -79 -63 -169 -174 -215 -269 l-37 -74 -69 55 -69 56 0 283
0 284 75 0 75 0 0 75 0 75 -975 0 -975 0 0 -75 0 -75 75 0 75 0 0 -284 0 -284
-47 -38 c-222 -179 -381 -401 -472 -657 -57 -163 -75 -272 -75 -467 0 -230 30
-376 116 -575 86 -198 246 -405 421 -543 l57 -45 0 -133 0 -134 75 0 75 0 0
85 c0 47 2 85 5 85 3 0 31 -13 63 -29 86 -43 221 -88 334 -111 293 -60 592
-23 881 108 l67 31 0 -85 0 -84 75 0 75 0 0 133 0 132 60 48 61 48 67 -62
c354 -325 794 -388 1203 -173 272 144 465 393 541 701 33 133 31 351 -6 488
-27 102 -80 224 -142 326 -72 119 -90 220 -67 372 20 136 13 306 -17 402 -78
245 -254 439 -485 532 l-80 32 -3 691 -2 690 35 87 c27 67 35 101 35 150 l0
63 -75 0 -75 0 0 -47 c0 -28 -11 -76 -27 -115 l-26 -68 -92 0 c-62 0 -96 4
-102 13 -6 6 -20 38 -32 70 -19 52 -21 78 -21 257 l0 200 150 0 150 0 0 -80 0
-80 75 0 75 0 0 155 0 155 -300 0 -300 0 0 -290z m380 -625 l0 -75 -75 0 -75
0 0 75 0 75 75 0 75 0 0 -75z m-5 -340 l0 -110 -72 -3 -73 -3 0 116 0 116 73
-3 72 -3 0 -110z m5 -375 l0 -110 -75 0 -75 0 0 110 0 110 75 0 75 0 0 -110z
m0 -370 l0 -110 -75 0 -75 0 0 110 0 110 75 0 75 0 0 -110z m-2250 -148 l0
-188 -107 -44 c-59 -25 -111 -46 -115 -48 -4 -2 -8 102 -8 232 l0 236 115 0
115 0 0 -188z m370 35 l0 -152 -110 -15 -110 -15 0 167 0 168 110 0 110 0 0
-153z m380 -10 c0 -90 -2 -166 -4 -168 -3 -2 -54 2 -115 11 l-111 15 0 152 0
153 115 0 115 0 0 -163z m370 -73 c0 -185 -3 -235 -12 -231 -7 3 -56 24 -108
46 l-95 40 -3 190 -2 191 110 0 110 0 0 -236z m1125 -179 l0 -110 -72 -3 -73
-3 0 116 0 116 73 -3 72 -3 0 -110z m248 33 c121 -62 220 -164 280 -288 26
-52 54 -122 62 -155 17 -69 19 -230 4 -295 -16 -63 -15 -203 2 -275 7 -33 35
-103 63 -155 112 -217 126 -248 148 -335 31 -126 31 -315 -1 -435 -119 -455
-574 -756 -1021 -676 -281 50 -525 234 -652 491 -66 133 -98 262 -98 397 0
162 42 323 120 455 61 103 99 186 115 256 17 73 19 213 3 277 -17 70 -14 226
5 300 9 36 36 103 59 150 33 68 58 102 127 170 81 81 185 150 225 150 14 0 16
-47 16 -497 l0 -497 -44 -46 c-25 -25 -57 -70 -73 -100 -25 -50 -28 -65 -28
-160 0 -87 4 -113 22 -153 31 -66 115 -152 182 -184 50 -25 67 -28 161 -28 94
0 111 3 160 27 70 34 143 107 176 174 67 138 39 316 -66 420 l-40 39 0 508 c0
279 3 507 6 507 3 0 43 -19 87 -42z m-1748 -111 c217 -56 402 -155 560 -299
l57 -52 -6 -71 c-3 -38 -1 -104 4 -145 6 -41 13 -118 16 -170 7 -118 -10 -178
-90 -318 -117 -205 -150 -328 -150 -552 0 -126 4 -171 21 -240 26 -101 71
-213 114 -284 l32 -50 -39 -35 c-66 -58 -213 -148 -311 -191 -425 -187 -933
-121 -1295 169 -240 191 -408 465 -463 753 -134 703 323 1370 1030 1502 128
24 392 15 520 -17z m1505 -297 l0 -110 -75 0 -75 0 0 110 0 110 75 0 75 0 0
-110z m-2 -377 l3 -113 -76 0 -75 0 0 115 0 116 73 -3 72 -3 3 -112z m20 -282
c79 -41 124 -114 124 -201 0 -127 -94 -220 -222 -220 -130 0 -220 92 -220 222
1 87 46 160 125 201 43 23 146 22 193 -2z"/>
<path d="M3697 983 c-4 -3 -7 -105 -7 -225 l0 -218 375 0 375 0 0 225 0 225
-368 0 c-203 0 -372 -3 -375 -7z m593 -218 l0 -75 -225 0 -225 0 0 68 c0 38 3
72 7 75 3 4 105 7 225 7 l218 0 0 -75z"/>
<path d="M1960 2185 l0 -225 375 0 375 0 0 225 0 225 -375 0 -375 0 0 -225z
m600 0 l0 -75 -225 0 -225 0 0 75 0 75 225 0 225 0 0 -75z"/>
<path d="M1660 2328 c-13 -11 -39 -33 -58 -49 l-33 -29 47 -55 c26 -30 50 -55
53 -55 3 1 28 20 56 45 l49 43 -38 56 c-21 31 -42 58 -45 60 -3 2 -17 -5 -31
-16z"/>
<path d="M1409 2063 c-24 -36 -39 -68 -34 -70 6 -2 34 -19 64 -37 l55 -34 39
56 40 56 -44 39 c-73 63 -70 63 -120 -10z"/>
<path d="M1880 1051 c-96 -31 -177 -108 -206 -193 -22 -67 -15 -177 14 -235
113 -220 426 -223 539 -4 28 53 33 74 33 130 0 87 -22 149 -72 206 -57 65
-126 97 -213 101 -38 2 -81 0 -95 -5z m150 -159 c19 -9 45 -33 58 -52 20 -29
23 -45 20 -93 -4 -49 -9 -62 -38 -92 -100 -103 -260 -36 -260 108 0 80 69 147
150 147 19 0 51 -8 70 -18z"/>
<path d="M2260 4505 l0 -375 -112 0 c-92 0 -121 -4 -158 -21 -58 -26 -115 -81
-148 -144 -23 -42 -27 -62 -26 -130 0 -95 27 -159 93 -218 62 -56 97 -70 186
-75 106 -6 165 18 235 95 77 84 80 102 80 473 l0 317 103 6 c56 3 123 13 149
22 62 22 133 85 166 149 23 44 27 66 30 164 l4 112 -301 0 -301 0 0 -375z
m445 198 c-20 -81 -76 -114 -202 -121 l-93 -5 0 77 0 76 151 0 151 0 -7 -27z
m-445 -810 c0 -102 -16 -145 -69 -180 -71 -48 -175 -20 -213 57 -34 67 -13
145 51 187 30 20 47 23 132 23 l99 0 0 -87z"/>
<path d="M735 4195 c-10 -36 -21 -68 -25 -70 -4 -3 -77 17 -162 44 -84 27
-170 52 -190 56 -57 11 -140 -11 -199 -53 -62 -44 -97 -102 -132 -219 l-25
-82 191 -61 c106 -34 244 -78 307 -99 l115 -38 3 -481 2 -482 75 0 75 0 0 455
c0 254 4 455 9 455 5 0 120 -36 257 -80 137 -43 250 -78 251 -76 1 1 17 47 34
102 39 125 37 196 -8 276 -47 84 -91 110 -288 174 l-173 56 24 71 c13 39 23
71 21 72 -5 4 -131 45 -138 45 -4 0 -15 -29 -24 -65z m-6 -241 c218 -70 406
-133 418 -141 12 -8 28 -29 37 -48 17 -35 22 -100 8 -109 -5 -3 -107 26 -228
65 -120 39 -318 102 -439 140 -121 39 -244 79 -274 88 -30 10 -56 22 -58 28
-9 27 82 101 126 103 8 0 192 -57 410 -126z"/>
<path d="M620 1547 l0 -1012 -215 -215 -215 -215 52 -52 53 -53 162 162 163
163 0 -163 0 -162 75 0 75 0 0 163 0 162 160 -161 159 -161 53 54 53 53 -213
213 -212 212 0 1013 0 1012 -75 0 -75 0 0 -1013z"/>
</g>
</svg>
